<?xml version="1.0" standalone="no"?><!DOCTYPE svg PUBLIC "-//W3C//DTD SVG 1.1//EN" "http://www.w3.org/Graphics/SVG/1.1/DTD/svg11.dtd"><svg t="1725628504885" class="icon" viewBox="0 0 1024 1024" version="1.1" xmlns="http://www.w3.org/2000/svg" p-id="5889" xmlns:xlink="http://www.w3.org/1999/xlink" width="200" height="200"><path d="M134.171429 824.457143c-7.542857 0-14.742857-3.771429-18.971429-10.171429-5.142857-7.657143-5.142857-17.6-0.114286-25.257143l49.6-75.428571c6.857143-10.742857 3.771429-25.485714-7.2-33.6C57.942857 606.628571 0.914286 499.085714 0.914286 384.8c0-52.342857 11.657143-102.971429 34.742857-150.742857 22.171429-45.828571 53.828571-86.971429 94.057143-122.285714C212 39.771429 321.142857 0.114286 437.028571 0.114286c116 0 225.028571 39.657143 307.314286 111.657143 40.228571 35.2 72 76.342857 94.057143 122.285714 23.085714 47.771429 34.742857 98.4 34.742857 150.742857 0 52.342857-11.657143 102.971429-34.742857 150.742857-22.171429 45.828571-53.828571 86.971429-94.057143 122.285714-81.828571 71.542857-190.171429 111.2-305.371428 111.542858l-115.885715 19.771428L138.4 824c-1.371429 0.342857-2.857143 0.457143-4.228571 0.457143z m302.857142-778.514286c-104.914286 0-203.314286 35.657143-277.257142 100.342857-73.028571 63.885714-113.142857 148.571429-113.142858 238.514286 0 99.657143 50.285714 193.828571 138.057143 258.4 30.285714 22.4 38.4 64.114286 18.4 95.2 0 0-0.114286 0.114286-0.114285 0.228571L182.857143 769.142857l132-24.914286c0.114286 0 0.228571 0 0.342857-0.114285L433.142857 724c1.257143-0.228571 2.514286-0.342857 3.885714-0.342857 104.914286 0 203.314286-35.657143 277.257143-100.342857 73.028571-63.885714 113.257143-148.685714 113.257143-238.628572 0-89.942857-40.228571-174.628571-113.257143-238.628571-73.942857-64.457143-172.342857-100.114286-277.257143-100.114286zM183.771429 726.057143z" p-id="5890" fill="#e6e6e6"></path><path d="M924.342857 1022.857143c-1.371429 0-2.742857-0.114286-4.114286-0.342857l-207.885714-37.714286c-59.428571-0.342857-116.914286-15.542857-166.514286-44.114286-49.371429-28.457143-88.342857-68.342857-112.8-115.657143-5.828571-11.2-1.371429-25.028571 9.828572-30.857142 11.2-5.828571 25.028571-1.371429 30.857143 9.828571 42.4 82.057143 136.914286 135.085714 240.8 135.085714 1.371429 0 2.742857 0.114286 4.114285 0.342857l157.485715 28.571429-5.142857-7.771429s-0.114286-0.114286-0.114286-0.228571c-15.885714-24.571429-9.485714-57.714286 14.514286-75.428571 58.971429-43.428571 92.8-106.628571 92.8-173.485715 0-66.171429-33.371429-129.028571-91.428572-172.457143-10.057143-7.542857-12.228571-21.828571-4.685714-32 7.542857-10.057143 21.828571-12.228571 32-4.685714 69.828571 52.114286 109.828571 128.342857 109.828571 209.142857 0 81.485714-40.571429 158.057143-111.428571 210.285715-4.457143 3.314286-5.942857 9.485714-3.2 13.828571l34.285714 52.228571c5.028571 7.657143 5.028571 17.485714 0 25.142858-4.457143 6.514286-11.657143 10.285714-19.2 10.285714z" p-id="5891" fill="#e6e6e6"></path><path d="M257.142857 365.485714m-22.857143 0a22.857143 22.857143 0 1 0 45.714286 0 22.857143 22.857143 0 1 0-45.714286 0Z" p-id="5892" fill="#e6e6e6"></path><path d="M440.685714 365.828571m-22.857143 0a22.857143 22.857143 0 1 0 45.714286 0 22.857143 22.857143 0 1 0-45.714286 0Z" p-id="5893" fill="#e6e6e6"></path><path d="M624.114286 365.485714m-22.857143 0a22.857143 22.857143 0 1 0 45.714286 0 22.857143 22.857143 0 1 0-45.714286 0Z" p-id="5894" fill="#e6e6e6"></path></svg>