<?xml version="1.0" standalone="no"?><!DOCTYPE svg PUBLIC "-//W3C//DTD SVG 1.1//EN" "http://www.w3.org/Graphics/SVG/1.1/DTD/svg11.dtd"><svg t="1725631012171" class="icon" viewBox="0 0 1024 1024" version="1.1" xmlns="http://www.w3.org/2000/svg" p-id="8984" xmlns:xlink="http://www.w3.org/1999/xlink" width="200" height="200"><path d="M718.807843 817.995294v-6.826667a318.243137 318.243137 0 0 0-163.036863-254.594509 200.784314 200.784314 0 0 0-45.979607-20.078432l2.610196-2.208627a191.548235 191.548235 0 1 0-290.334118-226.083137 188.737255 188.737255 0 0 0 69.069804 227.087058A319.648627 319.648627 0 0 0 81.719216 811.168627v7.228236a14.657255 14.657255 0 0 0 1.40549 7.228235 18.472157 18.472157 0 0 0 16.665098 10.641569h600.746667a18.472157 18.472157 0 0 0 16.665098-10.641569 17.066667 17.066667 0 0 0 1.606274-7.027451z m-606.368627-11.846274A289.53098 289.53098 0 0 1 301.176471 563.601569a29.113725 29.113725 0 0 0 20.078431-23.692549 28.511373 28.511373 0 0 0-12.247843-27.708236 161.832157 161.832157 0 1 1 186.528627-2.007843l-2.409411 2.007843a28.511373 28.511373 0 0 0-12.247844 27.708236 29.113725 29.113725 0 0 0 18.873726 23.692549 269.854118 269.854118 0 0 1 41.963921 20.078431 288.527059 288.527059 0 0 1 146.974118 223.272157z" fill="#e6e6e6" p-id="8985"></path><path d="M770.81098 565.207843a184.32 184.32 0 0 0-171.269019-313.625098 15.058824 15.058824 0 1 0 7.429019 29.515294 154.403137 154.403137 0 0 1 126.092549 276.48 15.259608 15.259608 0 0 0-6.425098 14.255686 15.460392 15.460392 0 0 0 9.838432 12.247844 267.043137 267.043137 0 0 1 174.682353 222.469019h-145.769412a15.058824 15.058824 0 0 0 0 30.117647h162.032941a15.661176 15.661176 0 0 0 10.440784-4.21647 14.255686 14.255686 0 0 0 4.61804-11.64549 296.759216 296.759216 0 0 0-171.670589-255.598432z" fill="#e6e6e6" p-id="8986"></path></svg>