<?xml version="1.0" standalone="no"?><!DOCTYPE svg PUBLIC "-//W3C//DTD SVG 1.1//EN" "http://www.w3.org/Graphics/SVG/1.1/DTD/svg11.dtd"><svg t="1725780440844" class="icon" viewBox="0 0 1048 1024" version="1.1" xmlns="http://www.w3.org/2000/svg" p-id="4539" id="mx_n_1725780440845" width="32.75" height="32" xmlns:xlink="http://www.w3.org/1999/xlink"><path d="M359.966106 800.470016 816.001126 543.319962l35.088998-22.936986-35.725005-21.89097L359.509197 239.925043l0.380006 71.140045 0 442.83L359.966106 800.470016zM414.601114 335.592038 733.773107 521.152 414.601114 706.715034 414.601114 335.592zM524.2752 0.018022C241.516134 0.018022 12.288102 229.245952 12.288102 512.005018c0 112.735027 36.439962 216.958976 98.182042 301.539021l38.667981-40.257024C97.458176 699.231027 67.143168 609.159987 67.143168 512.005018c0-252.46505 204.668006-457.132032 457.132032-457.132032 252.45399 0 457.120973 204.668006 457.120973 457.132032 0 252.460954-204.668006 457.118003-457.120973 457.118003-96.240026 0-185.530982-29.744026-259.189965-80.534016l-34.539008 42.797978c83.15095 58.344038 184.438989 92.594995 293.728973 92.594995 282.755994 0 511.984026-229.220966 511.984026-511.976038C1036.258202 229.245952 807.03017 0.018022 524.2752 0.018022z" p-id="4540" fill="#323676"></path></svg>