<?xml version="1.0" standalone="no"?><!DOCTYPE svg PUBLIC "-//W3C//DTD SVG 1.1//EN" "http://www.w3.org/Graphics/SVG/1.1/DTD/svg11.dtd"><svg t="1726214516209" class="icon" viewBox="0 0 1024 1024" version="1.1" xmlns="http://www.w3.org/2000/svg" p-id="7892" xmlns:xlink="http://www.w3.org/1999/xlink" width="200" height="200"><path d="M298.666667 426.666667V298.666667a213.333333 213.333333 0 1 1 426.666666 0v128h42.666667a85.333333 85.333333 0 0 1 85.333333 85.333333v341.333333a85.333333 85.333333 0 0 1-85.333333 85.333334H256a85.333333 85.333333 0 0 1-85.333333-85.333334v-341.333333a85.333333 85.333333 0 0 1 85.333333-85.333333h42.666667z m-42.666667 85.333333v341.333333h512v-341.333333H256z m128-85.333333h256V298.666667a128 128 0 0 0-256 0v128z m213.333333 170.666666h85.333334v170.666667h-85.333334v-170.666667z" fill="#000000" p-id="7893"></path></svg>