<?xml version="1.0" standalone="no"?><!DOCTYPE svg PUBLIC "-//W3C//DTD SVG 1.1//EN" "http://www.w3.org/Graphics/SVG/1.1/DTD/svg11.dtd"><svg t="1723461337499" class="icon" viewBox="0 0 1024 1024" version="1.1" xmlns="http://www.w3.org/2000/svg" p-id="4430" xmlns:xlink="http://www.w3.org/1999/xlink" width="200" height="200"><path d="M941.5 505.8L559.2 159.4l-25.6-23.2c-12.2-10.9-31.8-10.9-43.9 0l-408 369.6c-12.2 11-18.7 25.7-18.6 41.3 0.4 31.6 29.4 56.8 64.2 56.8h42.1V896H854V603.9h42.9c16.9 0 32.9-6 44.8-16.9 12-10.9 18.5-25.3 18.5-40.6-0.1-15.3-6.7-29.7-18.7-40.6zM567 831.4H456.1v-183H567v183z m215.6-292.1v292.1H630.3V626.9c0-19.8-17.7-35.9-39.6-35.9H432.4c-21.9 0-39.6 16.1-39.6 35.9v204.5H240.5V539.3h-95l366.1-331.6 22.9 20.7 343.2 310.9h-95.1z m0 0" p-id="4431"></path></svg>