<?xml version="1.0" standalone="no"?><!DOCTYPE svg PUBLIC "-//W3C//DTD SVG 1.1//EN" "http://www.w3.org/Graphics/SVG/1.1/DTD/svg11.dtd"><svg t="1723471894695" class="icon" viewBox="0 0 1024 1024" version="1.1" xmlns="http://www.w3.org/2000/svg" p-id="9325" xmlns:xlink="http://www.w3.org/1999/xlink" width="200" height="200"><path d="M256 268.8c-28.8 0-54.4 25.6-54.4 54.4 0 28.8 22.4 54.4 54.4 54.4 28.8 0 54.4-25.6 54.4-54.4 0-28.8-25.6-54.4-54.4-54.4z m150.4 0c-28.8 0-54.4 25.6-54.4 54.4 0 28.8 25.6 54.4 54.4 54.4 28.8 0 54.4-25.6 54.4-54.4 3.2-28.8-22.4-54.4-54.4-54.4z m153.6 3.2c-28.8 0-54.4 25.6-54.4 54.4 0 28.8 25.6 54.4 54.4 54.4 28.8 0 54.4-25.6 54.4-54.4 0-28.8-25.6-54.4-54.4-54.4z m358.4 102.4h-108.8V140.8c0-64-54.4-118.4-118.4-118.4H124.8C60.8 22.4 6.4 76.8 6.4 140.8v380.8c0 64 51.2 118.4 115.2 118.4v169.6l246.4-169.6v134.4c0 54.4 44.8 99.2 99.2 99.2h256l204.8 140.8v-140.8c51.2-3.2 92.8-48 92.8-99.2v-304c0-51.2-48-96-102.4-96z m-569.6 208l-169.6 118.4v-118.4H124.8c-32 0-60.8-25.6-60.8-60.8V140.8c0-32 25.6-60.8 60.8-60.8h566.4c32 0 60.8 25.6 60.8 60.8v380.8c0 32-25.6 60.8-60.8 60.8H348.8zM960 777.6c0 22.4-19.2 41.6-41.6 41.6h-51.2v86.4l-128-86.4h-272c-22.4 0-41.6-19.2-41.6-41.6v-134.4h265.6c64 0 118.4-54.4 118.4-118.4v-92.8h108.8c22.4 0 41.6 19.2 41.6 41.6v304z" p-id="9326"></path></svg>