<?xml version="1.0" standalone="no"?><!DOCTYPE svg PUBLIC "-//W3C//DTD SVG 1.1//EN" "http://www.w3.org/Graphics/SVG/1.1/DTD/svg11.dtd"><svg t="1723369954315" class="icon" viewBox="0 0 1024 1024" version="1.1" xmlns="http://www.w3.org/2000/svg" p-id="4341" xmlns:xlink="http://www.w3.org/1999/xlink" width="200" height="200"><path d="M1017.5 986.1L811.7 780.3c75.5-82.9 121.5-193 121.5-313.7C933.2 209.3 723.9 0 466.6 0S0 209.4 0 466.6s209.3 466.5 466.6 466.5c120.6 0 230.7-46 313.7-121.4l205.8 205.8c4.3 4.3 10 6.5 15.7 6.5s11.4-2.2 15.7-6.5c8.6-8.6 8.6-22.8 0-31.4z m-550.9-97.5c-232.7 0-422.1-189.4-422.1-422.1S233.8 44.4 466.6 44.4c232.7 0 422.1 189.4 422.1 422.1S699.3 888.6 466.6 888.6z" fill="" p-id="4342"></path></svg>