<?xml version="1.0" standalone="no"?><!DOCTYPE svg PUBLIC "-//W3C//DTD SVG 1.1//EN" "http://www.w3.org/Graphics/SVG/1.1/DTD/svg11.dtd"><svg t="1725628394069" class="icon" viewBox="0 0 1024 1024" version="1.1" xmlns="http://www.w3.org/2000/svg" p-id="1510" xmlns:xlink="http://www.w3.org/1999/xlink" width="200" height="200"><path d="M901.632 896H122.368c-30.72 0-55.808-25.088-55.808-55.808v-1.536c0-30.72 25.088-55.808 55.808-55.808h779.776c30.72 0 55.808 25.088 55.808 55.808v1.536c-0.512 30.72-25.6 55.808-56.32 55.808zM901.632 568.32H122.368c-30.72 0-55.808-25.088-55.808-55.808v-1.536c0-30.72 25.088-55.808 55.808-55.808h779.776c30.72 0 55.808 25.088 55.808 55.808v1.536c-0.512 30.72-25.6 55.808-56.32 55.808zM901.632 240.64H122.368c-30.72 0-55.808-25.088-55.808-55.808v-1.536c0-30.72 25.088-55.808 55.808-55.808h779.776c30.72 0 55.808 25.088 55.808 55.808v1.536c-0.512 30.72-25.6 55.808-56.32 55.808z" p-id="1511" fill="#e6e6e6"></path></svg>